<?xml version="1.0" encoding="UTF-8"?><svg xmlns="http://www.w3.org/2000/svg" xmlns:xlink="http://www.w3.org/1999/xlink" fill-opacity="1" color-rendering="auto" color-interpolation="auto" text-rendering="auto" stroke="black" stroke-linecap="square" width="643" stroke-miterlimit="10" shape-rendering="auto" stroke-opacity="1" fill="black" stroke-dasharray="none" font-weight="normal" stroke-width="1" height="496" font-family="'Dialog'" font-style="normal" stroke-linejoin="miter" font-size="12px" stroke-dashoffset="0" image-rendering="auto">
  <!--Generated by ySVG 2.5-->
  <defs id="genericDefs"/>
  <g>
    <defs id="defs1">
      <linearGradient x1="690.4509" gradientUnits="userSpaceOnUse" x2="995.5067" y1="365.2188" y2="427.1485" id="linearGradient1" spreadMethod="reflect">
        <stop stop-opacity="1" stop-color="white" offset="0%"/>
        <stop stop-opacity="1" stop-color="rgb(255,255,102)" offset="100%"/>
      </linearGradient>
      <linearGradient x1="683.9606" gradientUnits="userSpaceOnUse" x2="776.9413" y1="490.7551" y2="537.8354" id="linearGradient2" spreadMethod="reflect">
        <stop stop-opacity="1" stop-color="white" offset="0%"/>
        <stop stop-opacity="1" stop-color="rgb(255,153,0)" offset="100%"/>
      </linearGradient>
      <linearGradient x1="797.6389" gradientUnits="userSpaceOnUse" x2="877.6389" y1="490.7551" y2="530.7551" id="linearGradient3" spreadMethod="reflect">
        <stop stop-opacity="1" stop-color="white" offset="0%"/>
        <stop stop-opacity="1" stop-color="rgb(255,153,0)" offset="100%"/>
      </linearGradient>
      <linearGradient x1="915.5067" gradientUnits="userSpaceOnUse" x2="995.5067" y1="490.7551" y2="530.7551" id="linearGradient4" spreadMethod="reflect">
        <stop stop-opacity="1" stop-color="white" offset="0%"/>
        <stop stop-opacity="1" stop-color="rgb(255,153,0)" offset="100%"/>
      </linearGradient>
      <linearGradient x1="690.4509" gradientUnits="userSpaceOnUse" x2="770.4509" y1="555.9385" y2="595.9385" id="linearGradient5" spreadMethod="reflect">
        <stop stop-opacity="1" stop-color="white" offset="0%"/>
        <stop stop-opacity="1" stop-color="rgb(153,204,255)" offset="100%"/>
      </linearGradient>
      <linearGradient x1="647.959" gradientUnits="userSpaceOnUse" x2="1048.5909" y1="655.6389" y2="660.7091" id="linearGradient6" spreadMethod="reflect">
        <stop stop-opacity="1" stop-color="black" offset="0%"/>
        <stop stop-opacity="1" stop-color="black" offset="100%"/>
      </linearGradient>
      <linearGradient x1="715.4509" gradientUnits="userSpaceOnUse" x2="745.4509" y1="680.9889" y2="710.9889" id="linearGradient7" spreadMethod="reflect">
        <stop stop-opacity="1" stop-color="white" offset="0%"/>
        <stop stop-opacity="1" stop-color="rgb(153,153,153)" offset="100%"/>
      </linearGradient>
      <linearGradient x1="822.7183" gradientUnits="userSpaceOnUse" x2="852.7183" y1="680.9889" y2="710.9889" id="linearGradient8" spreadMethod="reflect">
        <stop stop-opacity="1" stop-color="white" offset="0%"/>
        <stop stop-opacity="1" stop-color="rgb(153,153,153)" offset="100%"/>
      </linearGradient>
      <linearGradient x1="940.5067" gradientUnits="userSpaceOnUse" x2="970.5067" y1="680.9889" y2="710.9889" id="linearGradient9" spreadMethod="reflect">
        <stop stop-opacity="1" stop-color="white" offset="0%"/>
        <stop stop-opacity="1" stop-color="rgb(153,153,153)" offset="100%"/>
      </linearGradient>
      <linearGradient x1="715.4509" gradientUnits="userSpaceOnUse" x2="982.7911" y1="245.6589" y2="322.1058" id="linearGradient10" spreadMethod="reflect">
        <stop stop-opacity="1" stop-color="white" offset="0%"/>
        <stop stop-opacity="1" stop-color="silver" offset="100%"/>
      </linearGradient>
      <linearGradient x1="499.9648" gradientUnits="userSpaceOnUse" x2="602.8354" y1="500.5211" y2="524.2953" id="linearGradient11" spreadMethod="reflect">
        <stop stop-opacity="1" stop-color="rgb(232,238,247)" offset="0%"/>
        <stop stop-opacity="1" stop-color="red" offset="100%"/>
      </linearGradient>
      <linearGradient x1="499.9648" gradientUnits="userSpaceOnUse" x2="602.8354" y1="378.1709" y2="401.9451" id="linearGradient12" spreadMethod="reflect">
        <stop stop-opacity="1" stop-color="rgb(232,238,247)" offset="0%"/>
        <stop stop-opacity="1" stop-color="red" offset="100%"/>
      </linearGradient>
      <linearGradient x1="647.959" gradientUnits="userSpaceOnUse" x2="1048.5115" y1="614.0416" y2="637.8158" id="linearGradient13" spreadMethod="reflect">
        <stop stop-opacity="1" stop-color="white" offset="0%"/>
        <stop stop-opacity="1" stop-color="rgb(204,255,204)" offset="100%"/>
      </linearGradient>
      <linearGradient x1="940.5067" gradientUnits="userSpaceOnUse" x2="1043.3773" y1="259.4709" y2="283.2451" id="linearGradient14" spreadMethod="reflect">
        <stop stop-opacity="1" stop-color="white" offset="0%"/>
        <stop stop-opacity="1" stop-color="silver" offset="100%"/>
      </linearGradient>
      <linearGradient x1="499.9648" gradientUnits="userSpaceOnUse" x2="602.8354" y1="678.5322" y2="702.3064" id="linearGradient15" spreadMethod="reflect">
        <stop stop-opacity="1" stop-color="rgb(232,238,247)" offset="0%"/>
        <stop stop-opacity="1" stop-color="red" offset="100%"/>
      </linearGradient>
      <linearGradient x1="499.9648" gradientUnits="userSpaceOnUse" x2="611.3125" y1="271.9953" y2="295.7695" id="linearGradient16" spreadMethod="reflect">
        <stop stop-opacity="1" stop-color="rgb(232,238,247)" offset="0%"/>
        <stop stop-opacity="1" stop-color="red" offset="100%"/>
      </linearGradient>
      <linearGradient x1="1018.1915" gradientUnits="userSpaceOnUse" x2="1111.1721" y1="601.8647" y2="625.6389" id="linearGradient17" spreadMethod="reflect">
        <stop stop-opacity="1" stop-color="white" offset="0%"/>
        <stop stop-opacity="1" stop-color="silver" offset="100%"/>
      </linearGradient>
      <linearGradient x1="499.9648" gradientUnits="userSpaceOnUse" x2="602.8354" y1="607.9532" y2="643.9043" id="linearGradient18" spreadMethod="reflect">
        <stop stop-opacity="1" stop-color="rgb(232,238,247)" offset="0%"/>
        <stop stop-opacity="1" stop-color="red" offset="100%"/>
      </linearGradient>
      <clipPath clipPathUnits="userSpaceOnUse" id="clipPath1">
        <path d="M0 0 L643 0 L643 496 L0 496 L0 0 Z"/>
      </clipPath>
      <clipPath clipPathUnits="userSpaceOnUse" id="clipPath2">
        <path d="M484 230 L1127 230 L1127 726 L484 726 L484 230 Z"/>
      </clipPath>
    </defs>
    <g fill="white" text-rendering="geometricPrecision" shape-rendering="geometricPrecision" transform="translate(-484,-230)" stroke="white">
      <rect x="484" width="643" height="496" y="230" clip-path="url(#clipPath2)" stroke="none"/>
    </g>
    <g fill="url(#linearGradient1)" text-rendering="geometricPrecision" shape-rendering="geometricPrecision" transform="matrix(1,0,0,1,-484,-230)" stroke="url(#linearGradient1)">
      <path d="M690.4509 365.2188 L995.5067 365.2188 L995.5067 427.1485 L690.4509 427.1485 Z" stroke="none" clip-path="url(#clipPath2)"/>
    </g>
    <g text-rendering="geometricPrecision" stroke-miterlimit="1.45" shape-rendering="geometricPrecision" transform="matrix(1,0,0,1,-484,-230)" stroke-linecap="butt">
      <path fill="none" d="M690.4509 365.2188 L995.5067 365.2188 L995.5067 427.1485 L690.4509 427.1485 Z" clip-path="url(#clipPath2)"/>
      <text x="783.7361" font-size="13px" y="401.2903" clip-path="url(#clipPath2)" font-family="sans-serif" stroke="none" xml:space="preserve">MEPA Access Layer</text>
    </g>
    <g fill="url(#linearGradient2)" text-rendering="geometricPrecision" shape-rendering="geometricPrecision" transform="matrix(1,0,0,1,-484,-230)" stroke="url(#linearGradient2)">
      <path d="M683.9606 490.7551 L776.9413 490.7551 L776.9413 537.8354 L683.9606 537.8354 Z" stroke="none" clip-path="url(#clipPath2)"/>
    </g>
    <g text-rendering="geometricPrecision" stroke-miterlimit="1.45" shape-rendering="geometricPrecision" transform="matrix(1,0,0,1,-484,-230)" stroke-linecap="butt">
      <path fill="none" d="M683.9606 490.7551 L776.9413 490.7551 L776.9413 537.8354 L683.9606 537.8354 Z" clip-path="url(#clipPath2)"/>
      <text x="688.7703" xml:space="preserve" y="511.6586" clip-path="url(#clipPath2)" font-family="sans-serif" stroke="none">VTSS&lt;-&gt;MEPA</text>
      <text x="698.4441" xml:space="preserve" y="526.3597" clip-path="url(#clipPath2)" font-family="sans-serif" stroke="none">Wrapper (1)</text>
    </g>
    <g fill="url(#linearGradient3)" text-rendering="geometricPrecision" shape-rendering="geometricPrecision" transform="matrix(1,0,0,1,-484,-230)" stroke="url(#linearGradient3)">
      <path d="M797.6389 490.7551 L877.6389 490.7551 L877.6389 530.7551 L797.6389 530.7551 Z" stroke="none" clip-path="url(#clipPath2)"/>
    </g>
    <g text-rendering="geometricPrecision" stroke-miterlimit="1.45" shape-rendering="geometricPrecision" transform="matrix(1,0,0,1,-484,-230)" stroke-linecap="butt">
      <path fill="none" d="M797.6389 490.7551 L877.6389 490.7551 L877.6389 530.7551 L797.6389 530.7551 Z" clip-path="url(#clipPath2)"/>
      <text x="812.6193" xml:space="preserve" y="515.469" clip-path="url(#clipPath2)" font-family="sans-serif" stroke="none">LAN8814</text>
    </g>
    <g fill="url(#linearGradient4)" text-rendering="geometricPrecision" shape-rendering="geometricPrecision" transform="matrix(1,0,0,1,-484,-230)" stroke="url(#linearGradient4)">
      <path d="M915.5067 490.7551 L995.5067 490.7551 L995.5067 530.7551 L915.5067 530.7551 Z" stroke="none" clip-path="url(#clipPath2)"/>
    </g>
    <g text-rendering="geometricPrecision" stroke-miterlimit="1.45" shape-rendering="geometricPrecision" transform="matrix(1,0,0,1,-484,-230)" stroke-linecap="butt">
      <path fill="none" d="M915.5067 490.7551 L995.5067 490.7551 L995.5067 530.7551 L915.5067 530.7551 Z" clip-path="url(#clipPath2)"/>
      <text x="922.8231" xml:space="preserve" y="508.1184" clip-path="url(#clipPath2)" font-family="sans-serif" stroke="none">Some future</text>
      <text x="943.1698" xml:space="preserve" y="522.8196" clip-path="url(#clipPath2)" font-family="sans-serif" stroke="none">PHY</text>
    </g>
    <g fill="url(#linearGradient5)" text-rendering="geometricPrecision" shape-rendering="geometricPrecision" transform="matrix(1,0,0,1,-484,-230)" stroke="url(#linearGradient5)">
      <path d="M690.4509 555.9385 L770.4509 555.9385 L770.4509 595.9385 L690.4509 595.9385 Z" stroke="none" clip-path="url(#clipPath2)"/>
    </g>
    <g text-rendering="geometricPrecision" stroke-miterlimit="1.45" shape-rendering="geometricPrecision" transform="matrix(1,0,0,1,-484,-230)" stroke-linecap="butt">
      <path fill="none" d="M690.4509 555.9385 L770.4509 555.9385 L770.4509 595.9385 L690.4509 595.9385 Z" clip-path="url(#clipPath2)"/>
      <text x="700.4363" xml:space="preserve" y="573.3018" clip-path="url(#clipPath2)" font-family="sans-serif" stroke="none">Unified API</text>
      <text x="723.1179" xml:space="preserve" y="588.003" clip-path="url(#clipPath2)" font-family="sans-serif" stroke="none">(2)</text>
    </g>
    <g fill="url(#linearGradient6)" text-rendering="geometricPrecision" shape-rendering="geometricPrecision" transform="matrix(1,0,0,1,-484,-230)" stroke="url(#linearGradient6)">
      <path d="M647.959 655.6389 L1048.5909 655.6389 L1048.5909 660.7091 L647.959 660.7091 Z" stroke="none" clip-path="url(#clipPath2)"/>
    </g>
    <g text-rendering="geometricPrecision" stroke-miterlimit="1.45" shape-rendering="geometricPrecision" transform="matrix(1,0,0,1,-484,-230)" stroke-linecap="butt">
      <path fill="none" d="M647.959 655.6389 L1048.5909 655.6389 L1048.5909 660.7091 L647.959 660.7091 Z" clip-path="url(#clipPath2)"/>
    </g>
    <g fill="url(#linearGradient7)" text-rendering="geometricPrecision" shape-rendering="geometricPrecision" transform="matrix(1,0,0,1,-484,-230)" stroke="url(#linearGradient7)">
      <path d="M715.4509 680.9889 L745.4509 680.9889 L745.4509 710.9889 L715.4509 710.9889 Z" stroke="none" clip-path="url(#clipPath2)"/>
    </g>
    <g text-rendering="geometricPrecision" stroke-miterlimit="1.45" shape-rendering="geometricPrecision" transform="matrix(1,0,0,1,-484,-230)" stroke-linecap="butt">
      <path fill="none" d="M715.4509 680.9889 L745.4509 680.9889 L745.4509 710.9889 L715.4509 710.9889 Z" clip-path="url(#clipPath2)"/>
      <text x="722.781" xml:space="preserve" y="700.7028" clip-path="url(#clipPath2)" font-family="sans-serif" stroke="none">hw</text>
    </g>
    <g fill="url(#linearGradient8)" text-rendering="geometricPrecision" shape-rendering="geometricPrecision" transform="matrix(1,0,0,1,-484,-230)" stroke="url(#linearGradient8)">
      <path d="M822.7183 680.9889 L852.7183 680.9889 L852.7183 710.9889 L822.7183 710.9889 Z" stroke="none" clip-path="url(#clipPath2)"/>
    </g>
    <g text-rendering="geometricPrecision" stroke-miterlimit="1.45" shape-rendering="geometricPrecision" transform="matrix(1,0,0,1,-484,-230)" stroke-linecap="butt">
      <path fill="none" d="M822.7183 680.9889 L852.7183 680.9889 L852.7183 710.9889 L822.7183 710.9889 Z" clip-path="url(#clipPath2)"/>
      <text x="830.0484" xml:space="preserve" y="700.7028" clip-path="url(#clipPath2)" font-family="sans-serif" stroke="none">hw</text>
    </g>
    <g fill="url(#linearGradient9)" text-rendering="geometricPrecision" shape-rendering="geometricPrecision" transform="matrix(1,0,0,1,-484,-230)" stroke="url(#linearGradient9)">
      <path d="M940.5067 680.9889 L970.5067 680.9889 L970.5067 710.9889 L940.5067 710.9889 Z" stroke="none" clip-path="url(#clipPath2)"/>
    </g>
    <g text-rendering="geometricPrecision" stroke-miterlimit="1.45" shape-rendering="geometricPrecision" transform="matrix(1,0,0,1,-484,-230)" stroke-linecap="butt">
      <path fill="none" d="M940.5067 680.9889 L970.5067 680.9889 L970.5067 710.9889 L940.5067 710.9889 Z" clip-path="url(#clipPath2)"/>
      <text x="947.8368" xml:space="preserve" y="700.7028" clip-path="url(#clipPath2)" font-family="sans-serif" stroke="none">hw</text>
    </g>
    <g fill="url(#linearGradient10)" text-rendering="geometricPrecision" shape-rendering="geometricPrecision" transform="matrix(1,0,0,1,-484,-230)" stroke="url(#linearGradient10)">
      <path d="M748.8685 286.1758 C715.4509 264.7707 748.8685 245.6589 803.6732 259.4194 C803.6732 245.6589 894.5688 245.6589 894.5688 259.4194 C949.3735 245.6589 982.7911 264.7707 949.3735 281.589 C982.7911 302.9941 949.3735 322.1058 907.9359 308.3454 C894.5688 322.1058 803.6732 322.1058 817.0402 308.3454 C748.8685 322.1058 715.4509 302.9941 748.8685 286.1758 Z" stroke="none" clip-path="url(#clipPath2)"/>
    </g>
    <g text-rendering="geometricPrecision" stroke-miterlimit="1.45" shape-rendering="geometricPrecision" transform="matrix(1,0,0,1,-484,-230)" stroke-linecap="butt">
      <path fill="none" d="M748.8685 286.1758 C715.4509 264.7707 748.8685 245.6589 803.6732 259.4194 C803.6732 245.6589 894.5688 245.6589 894.5688 259.4194 C949.3735 245.6589 982.7911 264.7707 949.3735 281.589 C982.7911 302.9941 949.3735 322.1058 907.9359 308.3454 C894.5688 322.1058 803.6732 322.1058 817.0402 308.3454 C748.8685 322.1058 715.4509 302.9941 748.8685 286.1758 Z" clip-path="url(#clipPath2)"/>
      <text x="787.3425" font-size="13px" y="288.9891" clip-path="url(#clipPath2)" font-family="sans-serif" stroke="none" xml:space="preserve">Customer Application</text>
    </g>
    <g fill="url(#linearGradient11)" text-rendering="geometricPrecision" shape-rendering="geometricPrecision" transform="matrix(1,0,0,1,-484,-230)" stroke="url(#linearGradient11)">
      <path d="M499.9648 500.5211 L596.8918 500.5211 L602.8354 512.4082 L596.8918 524.2953 L499.9648 524.2953 Z" stroke="none" clip-path="url(#clipPath2)"/>
    </g>
    <g text-rendering="geometricPrecision" stroke-miterlimit="1.45" shape-rendering="geometricPrecision" transform="matrix(1,0,0,1,-484,-230)" stroke-linecap="butt">
      <path fill="none" d="M499.9648 500.5211 L596.8918 500.5211 L602.8354 512.4082 L596.8918 524.2953 L499.9648 524.2953 Z" clip-path="url(#clipPath2)"/>
      <text x="516.3786" y="517.1221" clip-path="url(#clipPath2)" font-family="sans-serif" stroke="none" font-weight="bold" xml:space="preserve">Driver Layer</text>
    </g>
    <g fill="url(#linearGradient12)" text-rendering="geometricPrecision" shape-rendering="geometricPrecision" transform="matrix(1,0,0,1,-484,-230)" stroke="url(#linearGradient12)">
      <path d="M499.9648 378.1709 L596.8918 378.1709 L602.8354 390.058 L596.8918 401.9451 L499.9648 401.9451 Z" stroke="none" clip-path="url(#clipPath2)"/>
    </g>
    <g text-rendering="geometricPrecision" stroke-miterlimit="1.45" shape-rendering="geometricPrecision" transform="matrix(1,0,0,1,-484,-230)" stroke-linecap="butt">
      <path fill="none" d="M499.9648 378.1709 L596.8918 378.1709 L602.8354 390.058 L596.8918 401.9451 L499.9648 401.9451 Z" clip-path="url(#clipPath2)"/>
      <text x="512.7048" y="394.7719" clip-path="url(#clipPath2)" font-family="sans-serif" stroke="none" font-weight="bold" xml:space="preserve">Access Layer</text>
    </g>
    <g fill="url(#linearGradient13)" text-rendering="geometricPrecision" shape-rendering="geometricPrecision" transform="matrix(1,0,0,1,-484,-230)" stroke="url(#linearGradient13)">
      <path d="M647.959 614.0416 L1048.5115 614.0416 L1048.5115 637.8158 L647.959 637.8158 Z" stroke="none" clip-path="url(#clipPath2)"/>
    </g>
    <g text-rendering="geometricPrecision" stroke-miterlimit="1.45" shape-rendering="geometricPrecision" transform="matrix(1,0,0,1,-484,-230)" stroke-linecap="butt">
      <path fill="none" d="M647.959 614.0416 L1048.5115 614.0416 L1048.5115 637.8158 L647.959 637.8158 Z" clip-path="url(#clipPath2)"/>
      <text x="774.5421" font-size="13px" y="631.0354" clip-path="url(#clipPath2)" font-family="sans-serif" stroke="none" xml:space="preserve">Bus Access Functions (3)</text>
    </g>
    <g fill="url(#linearGradient14)" text-rendering="geometricPrecision" shape-rendering="geometricPrecision" transform="matrix(1,0,0,1,-484,-230)" stroke="url(#linearGradient14)">
      <path d="M940.5067 259.4709 L1043.3773 259.4709 L1043.3773 283.2451 L940.5067 283.2451 Z" stroke="none" clip-path="url(#clipPath2)"/>
    </g>
    <g text-rendering="geometricPrecision" stroke-miterlimit="1.45" stroke-dasharray="6,2" shape-rendering="geometricPrecision" transform="matrix(1,0,0,1,-484,-230)" stroke-linecap="butt">
      <path fill="none" d="M940.5067 259.4709 L1043.3773 259.4709 L1043.3773 283.2451 L940.5067 283.2451 Z" clip-path="url(#clipPath2)"/>
      <text x="958.0309" font-size="10px" y="275.2863" clip-path="url(#clipPath2)" font-family="sans-serif" stroke-dasharray="none" stroke="none" xml:space="preserve">mepa_callout_t</text>
    </g>
    <g fill="url(#linearGradient15)" text-rendering="geometricPrecision" shape-rendering="geometricPrecision" transform="matrix(1,0,0,1,-484,-230)" stroke="url(#linearGradient15)">
      <path d="M499.9648 678.5322 L596.8918 678.5322 L602.8354 690.4193 L596.8918 702.3064 L499.9648 702.3064 Z" stroke="none" clip-path="url(#clipPath2)"/>
    </g>
    <g text-rendering="geometricPrecision" stroke-miterlimit="1.45" shape-rendering="geometricPrecision" transform="matrix(1,0,0,1,-484,-230)" stroke-linecap="butt">
      <path fill="none" d="M499.9648 678.5322 L596.8918 678.5322 L602.8354 690.4193 L596.8918 702.3064 L499.9648 702.3064 Z" clip-path="url(#clipPath2)"/>
      <text x="506.3766" y="695.1332" clip-path="url(#clipPath2)" font-family="sans-serif" stroke="none" font-weight="bold" xml:space="preserve">Hardware Layer</text>
    </g>
    <g fill="url(#linearGradient16)" text-rendering="geometricPrecision" shape-rendering="geometricPrecision" transform="matrix(1,0,0,1,-484,-230)" stroke="url(#linearGradient16)">
      <path d="M499.9648 271.9953 L605.369 271.9953 L611.3125 283.8824 L605.369 295.7695 L499.9648 295.7695 Z" stroke="none" clip-path="url(#clipPath2)"/>
    </g>
    <g text-rendering="geometricPrecision" stroke-miterlimit="1.45" shape-rendering="geometricPrecision" transform="matrix(1,0,0,1,-484,-230)" stroke-linecap="butt">
      <path fill="none" d="M499.9648 271.9953 L605.369 271.9953 L611.3125 283.8824 L605.369 295.7695 L499.9648 295.7695 Z" clip-path="url(#clipPath2)"/>
      <text x="505.2949" y="288.5963" clip-path="url(#clipPath2)" font-family="sans-serif" stroke="none" font-weight="bold" xml:space="preserve">Application Layer</text>
    </g>
    <g fill="url(#linearGradient17)" text-rendering="geometricPrecision" shape-rendering="geometricPrecision" transform="matrix(1,0,0,1,-484,-230)" stroke="url(#linearGradient17)">
      <path d="M1018.1915 601.8647 L1111.1721 601.8647 L1111.1721 625.6389 L1018.1915 625.6389 Z" stroke="none" clip-path="url(#clipPath2)"/>
    </g>
    <g text-rendering="geometricPrecision" stroke-miterlimit="1.45" stroke-dasharray="6,2" shape-rendering="geometricPrecision" transform="matrix(1,0,0,1,-484,-230)" stroke-linecap="butt">
      <path fill="none" d="M1018.1915 601.8647 L1111.1721 601.8647 L1111.1721 625.6389 L1018.1915 625.6389 Z" clip-path="url(#clipPath2)"/>
      <text x="1030.7708" font-size="10px" y="617.68" clip-path="url(#clipPath2)" font-family="sans-serif" stroke-dasharray="none" stroke="none" xml:space="preserve">mepa_callout_t</text>
    </g>
    <g fill="url(#linearGradient18)" text-rendering="geometricPrecision" shape-rendering="geometricPrecision" transform="matrix(1,0,0,1,-484,-230)" stroke="url(#linearGradient18)">
      <path d="M499.9648 607.9532 L593.8476 607.9532 L602.8354 625.9287 L593.8476 643.9043 L499.9648 643.9043 Z" stroke="none" clip-path="url(#clipPath2)"/>
    </g>
    <g text-rendering="geometricPrecision" stroke-miterlimit="1.45" shape-rendering="geometricPrecision" transform="matrix(1,0,0,1,-484,-230)" stroke-linecap="butt">
      <path fill="none" d="M499.9648 607.9532 L593.8476 607.9532 L602.8354 625.9287 L593.8476 643.9043 L499.9648 643.9043 Z" clip-path="url(#clipPath2)"/>
      <text x="515.7136" y="622.0176" clip-path="url(#clipPath2)" font-family="sans-serif" stroke="none" font-weight="bold" xml:space="preserve">Bus Access </text>
      <text x="508.3952" y="636.7188" clip-path="url(#clipPath2)" font-family="sans-serif" stroke="none" font-weight="bold" xml:space="preserve">Function Layer</text>
    </g>
    <g text-rendering="geometricPrecision" stroke-miterlimit="1.45" shape-rendering="geometricPrecision" transform="matrix(1,0,0,1,-484,-230)" stroke-linecap="butt">
      <path fill="none" d="M813.5007 427.1245 L758.4146 484.9441" clip-path="url(#clipPath2)"/>
    </g>
    <g text-rendering="geometricPrecision" stroke-miterlimit="1.45" shape-rendering="geometricPrecision" transform="matrix(1,0,0,1,-484,-230)" stroke-linecap="butt">
      <path d="M752.8963 490.7362 L764.7938 485.4969 L759.1044 484.22 L757.5536 478.5991 Z" stroke="none" clip-path="url(#clipPath2)"/>
      <path fill="none" d="M841.5356 427.1481 L838.9417 482.801" clip-path="url(#clipPath2)"/>
      <path d="M838.5693 490.7923 L844.1225 479.0381 L838.9883 481.8021 L834.1334 478.5726 Z" clip-path="url(#clipPath2)" stroke="none"/>
      <path fill="none" d="M873.3911 427.1481 L930.2742 485.0644" clip-path="url(#clipPath2)"/>
      <path d="M935.8799 490.7719 L931.0386 478.707 L929.5735 484.3509 L923.9042 485.7142 Z" clip-path="url(#clipPath2)" stroke="none"/>
      <path fill="none" d="M730.4509 537.863 L730.4509 547.9712" clip-path="url(#clipPath2)"/>
      <path d="M730.4509 555.9712 L735.4509 543.9712 L730.4509 546.9712 L725.4509 543.9712 Z" clip-path="url(#clipPath2)" stroke="none"/>
      <path fill="none" d="M847.2211 318.6201 L845.1081 357.2535" clip-path="url(#clipPath2)"/>
      <path d="M844.6712 365.2415 L850.3191 353.5325 L845.1627 356.255 L840.334 352.9864 Z" clip-path="url(#clipPath2)" stroke="none"/>
      <path fill="none" d="M730.4509 595.9302 L730.4509 606.0467" clip-path="url(#clipPath2)"/>
      <path d="M730.4509 614.0467 L735.4509 602.0467 L730.4509 605.0467 L725.4509 602.0467 Z" clip-path="url(#clipPath2)" stroke="none"/>
      <path fill="none" d="M837.6389 530.7344 L837.6389 606.0335" clip-path="url(#clipPath2)"/>
      <path d="M837.6389 614.0335 L842.6389 602.0335 L837.6389 605.0335 L832.6389 602.0335 Z" clip-path="url(#clipPath2)" stroke="none"/>
      <path fill="none" d="M955.5067 530.7474 L955.5067 606.0775" clip-path="url(#clipPath2)"/>
      <path d="M955.5067 614.0775 L960.5067 602.0775 L955.5067 605.0775 L950.5067 602.0775 Z" clip-path="url(#clipPath2)" stroke="none"/>
      <path fill="none" d="M730.4509 637.8215 L730.4509 672.9642" clip-path="url(#clipPath2)"/>
      <path d="M730.4509 680.9642 L735.4509 668.9642 L730.4509 671.9642 L725.4509 668.9642 Z" clip-path="url(#clipPath2)" stroke="none"/>
      <path fill="none" d="M837.7183 637.7993 L837.7183 673.0153" clip-path="url(#clipPath2)"/>
      <path d="M837.7183 681.0153 L842.7183 669.0153 L837.7183 672.0153 L832.7183 669.0153 Z" clip-path="url(#clipPath2)" stroke="none"/>
      <path fill="none" d="M955.5067 637.7993 L955.5067 673.0153" clip-path="url(#clipPath2)"/>
      <path d="M955.5067 681.0153 L960.5067 669.0153 L955.5067 672.0153 L950.5067 669.0153 Z" clip-path="url(#clipPath2)" stroke="none"/>
      <path fill="none" stroke-dasharray="6,2" d="M1028.4564 283.2673 L1032.1129 593.8514" clip-path="url(#clipPath2)"/>
      <path stroke-dasharray="6,2" d="M1032.207 601.8508 L1037.0656 589.7928 L1032.1012 592.8514 L1027.0662 589.9105 Z" clip-path="url(#clipPath2)" stroke="none"/>
    </g>
  </g>
</svg>
