<?xml version="1.0" encoding="UTF-8" standalone="no"?>
<!DOCTYPE svg PUBLIC "-//W3C//DTD SVG 1.1//EN" "http://www.w3.org/Graphics/SVG/1.1/DTD/svg11.dtd">
<!-- Generated by Microsoft Visio, SVG Export vop-model.svg Page-1 -->
<svg xmlns="http://www.w3.org/2000/svg" xmlns:xlink="http://www.w3.org/1999/xlink" xmlns:ev="http://www.w3.org/2001/xml-events"
		xmlns:v="http://schemas.microsoft.com/visio/2003/SVGExtensions/" width="5.90551in" height="3.93701in"
		viewBox="0 0 425.197 283.465" xml:space="preserve" color-interpolation-filters="sRGB" class="st10">
	<v:documentProperties v:langID="1033" v:metric="true" v:viewMarkup="false">
		<v:userDefs>
			<v:ud v:nameU="msvConvertTheme"/>
			<v:ud v:nameU="msvNoAutoConnect" v:val="VT0(1):26"/>
		</v:userDefs>
	</v:documentProperties>

	<style type="text/css">
	<![CDATA[
		.st1 {fill:#ffffff;stroke:#000000;stroke-linecap:round;stroke-linejoin:round;stroke-width:0.24}
		.st2 {stroke:#000000;stroke-linecap:round;stroke-linejoin:round;stroke-width:1.2}
		.st3 {fill:none;stroke:#000000;stroke-linecap:round;stroke-linejoin:round;stroke-width:0.24}
		.st4 {fill:none;stroke:none;stroke-linecap:round;stroke-linejoin:round;stroke-width:0.72}
		.st5 {fill:#000000;font-family:Arial;font-size:1.00001em}
		.st6 {fill:#000000;stroke:#000000;stroke-linecap:round;stroke-linejoin:round;stroke-width:0.24}
		.st7 {fill:#000000;font-family:Arial;font-size:0.666664em}
		.st8 {stroke:#000000;stroke-linecap:round;stroke-linejoin:round;stroke-width:0.24}
		.st9 {font-size:1em}
		.st10 {fill:none;fill-rule:evenodd;font-size:12px;overflow:visible;stroke-linecap:square;stroke-miterlimit:3}
	]]>
	</style>

	<g v:mID="0" v:index="1" v:groupContext="foregroundPage">
		<title>Page-1</title>
		<v:pageProperties v:drawingScale="0.0393701" v:pageScale="0.0393701" v:drawingUnits="24" v:shadowOffsetX="8.50394"
				v:shadowOffsetY="-8.50394"/>
		<v:layer v:name="Connector" v:index="0"/>
		<v:layer v:name="Flowchart" v:index="1"/>
		<g id="shape1-1" v:mID="1" v:groupContext="shape" transform="translate(-17.3622,236.693) rotate(-90)">
			<title>Ellipse.73</title>
			<v:userDefs>
				<v:ud v:nameU="visVersion" v:val="VT0(12):26"/>
			</v:userDefs>
			<path d="M0 272.86 A104.173 10.6071 0 0 1 208.35 272.86 A104.173 10.6071 0 1 1 0 272.86 Z" class="st1"/>
		</g>
		<g id="shape2-3" v:mID="2" v:groupContext="shape" transform="translate(186.058,415.981) rotate(179.707)">
			<title>Sheet.2</title>
			<path d="M0 283.46 L110.73 283.46" class="st2"/>
		</g>
		<g id="shape3-6" v:mID="3" v:groupContext="shape" transform="translate(59.1732,-20.5512)">
			<title>Sheet.3</title>
			<rect x="0" y="41.1024" width="313.228" height="242.362" class="st3"/>
		</g>
		<g id="shape4-8" v:mID="4" v:groupContext="shape" transform="translate(-28.4393,215.433) rotate(-90)">
			<title>Sheet.4</title>
			<path d="M0 283.46 L167.24 283.46" class="st2"/>
		</g>
		<g id="shape5-11" v:mID="5" v:groupContext="shape" transform="translate(232.264,-29.3257)">
			<title>Sheet.5</title>
			<desc>VLAN X</desc>
			<v:textBlock v:margins="rect(4,4,4,4)" v:tabSpace="42.5197"/>
			<v:textRect cx="26.7515" cy="278.066" width="53.51" height="10.7975"/>
			<rect x="0" y="272.667" width="53.5031" height="10.7975" class="st4"/>
			<text x="5.41" y="281.67" class="st5" v:langID="1030"><v:paragraph v:horizAlign="1"/><v:tabList/>VLAN X</text>		</g>
		<g id="shape6-14" v:mID="6" v:groupContext="shape" transform="translate(46.233,-132.167)">
			<title>Sheet.6</title>
			<rect x="0" y="247.679" width="27.6482" height="35.786" class="st1"/>
		</g>
		<g id="shape7-16" v:mID="7" v:groupContext="shape" transform="translate(210.992,367.514) rotate(150)">
			<title>Triangle.189</title>
			<v:userDefs>
				<v:ud v:nameU="visVersion" v:val="VT0(12):26"/>
			</v:userDefs>
			<path d="M23.35 283.46 L10.84 261.79 L-1.68 283.46 L23.35 283.46 Z" class="st1"/>
		</g>
		<g id="shape8-18" v:mID="8" v:groupContext="shape" v:layerMember="1" transform="translate(378.282,105.591) rotate(90)">
			<title>Manual operation.194</title>
			<v:custProps>
				<v:cp v:nameU="Cost" v:lbl="Cost" v:type="7" v:format="@" v:langID="1033"/>
				<v:cp v:nameU="Duration" v:lbl="Duration" v:type="2" v:langID="1033"/>
				<v:cp v:nameU="Resources" v:lbl="Resources" v:langID="1033"/>
			</v:custProps>
			<v:userDefs>
				<v:ud v:nameU="AntiScale" v:val="VT0(1):26"/>
				<v:ud v:nameU="visVersion" v:val="VT0(12):26"/>
			</v:userDefs>
			<path d="M13.82 283.46 L41.46 283.46 L55.28 269.29 L0 269.29 L13.82 283.46 Z" class="st1"/>
		</g>
		<g id="shape9-20" v:mID="9" v:groupContext="shape" transform="translate(292.496,366.573) rotate(150)">
			<title>Triangle.195</title>
			<v:userDefs>
				<v:ud v:nameU="visVersion" v:val="VT0(12):26"/>
			</v:userDefs>
			<path d="M23.35 283.46 L10.84 261.79 L-1.68 283.46 L23.35 283.46 Z" class="st1"/>
		</g>
		<g id="shape10-22" v:mID="10" v:groupContext="shape" transform="translate(108.991,415.108) rotate(180)">
			<title>Sheet.10</title>
			<rect x="0" y="279.496" width="3.40157" height="3.9685" class="st6"/>
		</g>
		<g id="shape11-24" v:mID="11" v:groupContext="shape" transform="translate(108.664,419.319) rotate(180)">
			<title>Sheet.11</title>
			<desc>X</desc>
			<v:textBlock v:margins="rect(4,4,4,4)" v:tabSpace="42.5197"/>
			<v:textRect cx="7.26126" cy="281.305" width="14.53" height="4.31901"/>
			<rect x="0" y="279.146" width="14.5225" height="4.31901" class="st4"/>
			<text x="4.59" y="283.71" class="st7" v:langID="1030"><v:paragraph v:horizAlign="1"/><v:tabList/>X</text>		</g>
		<g id="shape12-27" v:mID="12" v:groupContext="shape" transform="translate(108.991,-134.246)">
			<title>Sheet.12</title>
			<path d="M0 283.46 L13.61 283.46" class="st2"/>
		</g>
		<g id="shape13-30" v:mID="13" v:groupContext="shape" transform="translate(108.991,-165.427)">
			<title>Sheet.13</title>
			<path d="M0 283.46 L13.61 283.46" class="st2"/>
		</g>
		<g id="shape32-33" v:mID="32" v:groupContext="shape" transform="translate(217.868,-150.755) rotate(-0.295419)">
			<title>Sheet.32</title>
			<path d="M0 283.46 L36.17 283.46" class="st2"/>
		</g>
		<g id="shape34-36" v:mID="34" v:groupContext="shape" transform="translate(254.954,-204.803) rotate(-0.014451)">
			<title>Sheet.34</title>
			<path d="M0 283.46 L102.55 283.46" class="st2"/>
		</g>
		<g id="shape35-39" v:mID="35" v:groupContext="shape" transform="translate(385.223,343.889) rotate(180)">
			<title>Sheet.35</title>
			<rect x="0" y="247.679" width="27.6482" height="35.786" class="st1"/>
		</g>
		<g id="shape36-41" v:mID="36" v:groupContext="shape" transform="translate(220.465,-155.792) rotate(-30)">
			<title>Triangle.4</title>
			<v:userDefs>
				<v:ud v:nameU="visVersion" v:val="VT0(12):26"/>
			</v:userDefs>
			<path d="M23.35 283.46 L10.84 261.79 L-1.68 283.46 L23.35 283.46 Z" class="st1"/>
		</g>
		<g id="shape37-43" v:mID="37" v:groupContext="shape" v:layerMember="1" transform="translate(41.8358,106.132) rotate(-90)">
			<title>Manual operation.5</title>
			<v:custProps>
				<v:cp v:nameU="Cost" v:lbl="Cost" v:type="7" v:format="@" v:langID="1033"/>
				<v:cp v:nameU="Duration" v:lbl="Duration" v:type="2" v:langID="1033"/>
				<v:cp v:nameU="Resources" v:lbl="Resources" v:langID="1033"/>
			</v:custProps>
			<v:userDefs>
				<v:ud v:nameU="AntiScale" v:val="VT0(1):26"/>
				<v:ud v:nameU="visVersion" v:val="VT0(12):26"/>
			</v:userDefs>
			<path d="M13.82 283.46 L41.46 283.46 L55.28 269.29 L0 269.29 L13.82 283.46 Z" class="st1"/>
		</g>
		<g id="shape40-45" v:mID="40" v:groupContext="shape" transform="translate(311.127,345.968) rotate(180)">
			<title>Sheet.40</title>
			<path d="M0 283.46 L13.61 283.46" class="st2"/>
		</g>
		<g id="shape41-48" v:mID="41" v:groupContext="shape" transform="translate(311.127,377.15) rotate(180)">
			<title>Sheet.41</title>
			<path d="M0 283.46 L13.61 283.46" class="st2"/>
		</g>
		<g id="shape43-51" v:mID="43" v:groupContext="shape" transform="translate(10.2756,-144.129)">
			<title>Sheet.43</title>
			<desc>Port 1</desc>
			<v:textBlock v:margins="rect(4,4,4,4)" v:tabSpace="42.5197"/>
			<v:textRect cx="19.1339" cy="278.066" width="38.27" height="10.7975"/>
			<rect x="0" y="272.667" width="38.2677" height="10.7975" class="st4"/>
			<text x="8.46" y="280.47" class="st7" v:langID="1030"><v:paragraph v:horizAlign="1"/><v:tabList/>Port 1</text>		</g>
		<g id="shape44-54" v:mID="44" v:groupContext="shape" transform="translate(382.323,-201.092)">
			<title>Sheet.44</title>
			<desc>Port 2</desc>
			<v:textBlock v:margins="rect(4,4,4,4)" v:tabSpace="42.5197"/>
			<v:textRect cx="16.2992" cy="278.066" width="32.6" height="10.7975"/>
			<rect x="0" y="272.667" width="32.5984" height="10.7975" class="st4"/>
			<text x="5.63" y="280.47" class="st7" v:langID="1030"><v:paragraph v:horizAlign="1"/><v:tabList/>Port 2</text>		</g>
		<g id="group22-57" transform="translate(468.071,118.346) rotate(90)" v:mID="22" v:groupContext="group">
			<title>Sheet.22</title>
			<g id="group23-58" transform="translate(283.465,248.74) rotate(90)" v:mID="23" v:groupContext="group">
				<title>Sheet.23</title>
				<g id="shape24-59" v:mID="24" v:groupContext="shape" transform="translate(297.638,255.118) rotate(90)">
					<title>Sheet.24</title>
					<path d="M0 283.46 L28.35 283.46" class="st8"/>
				</g>
				<g id="shape25-62" v:mID="25" v:groupContext="shape" transform="translate(211.678,452.622) rotate(135)">
					<title>Sheet.25</title>
					<path d="M0 279.31 A14.1732 14.1732 -135 0 0 20.04 279.31" class="st8"/>
				</g>
				<g id="shape26-65" v:mID="26" v:groupContext="shape" transform="translate(-186.266,483.904) rotate(-135)">
					<title>Sheet.26</title>
					<path d="M0 283.46 A14.1732 14.1732 135 0 1 20.04 283.46" class="st8"/>
				</g>
			</g>
			<g id="group27-68" transform="translate(-255.118,283.465) rotate(-90)" v:mID="27" v:groupContext="group">
				<title>Sheet.27</title>
				<g id="shape28-69" v:mID="28" v:groupContext="shape" transform="translate(297.638,255.118) rotate(90)">
					<title>Sheet.28</title>
					<path d="M0 283.46 L28.35 283.46" class="st8"/>
				</g>
				<g id="shape29-72" v:mID="29" v:groupContext="shape" transform="translate(211.678,452.622) rotate(135)">
					<title>Sheet.29</title>
					<path d="M0 279.31 A14.1732 14.1732 -135 0 0 20.04 279.31" class="st8"/>
				</g>
				<g id="shape30-75" v:mID="30" v:groupContext="shape" transform="translate(-186.266,483.904) rotate(-135)">
					<title>Sheet.30</title>
					<path d="M0 283.46 A14.1732 14.1732 135 0 1 20.04 283.46" class="st8"/>
				</g>
			</g>
			<g id="shape31-78" v:mID="31" v:groupContext="shape" transform="translate(297.638,263.197) rotate(90)">
				<title>Sheet.31</title>
				<path d="M0 283.46 L6.09 283.46" class="st2"/>
			</g>
		</g>
		<g id="shape38-81" v:mID="38" v:groupContext="shape" transform="translate(314.858,360.142) rotate(180)">
			<title>Sheet.38</title>
			<rect x="0" y="279.496" width="3.40157" height="3.9685" class="st6"/>
		</g>
		<g id="shape39-83" v:mID="39" v:groupContext="shape" transform="translate(325.979,364.894) rotate(180)">
			<title>Sheet.39</title>
			<desc>X</desc>
			<v:textBlock v:margins="rect(4,4,4,4)" v:tabSpace="42.5197"/>
			<v:textRect cx="7.26126" cy="281.305" width="14.53" height="4.31901"/>
			<rect x="0" y="279.146" width="14.5225" height="4.31901" class="st4"/>
			<text x="4.59" y="283.71" class="st7" v:langID="1030"><v:paragraph v:horizAlign="1"/><v:tabList/>X</text>		</g>
		<g id="shape14-86" v:mID="14" v:groupContext="shape" transform="translate(254.793,-114.636) rotate(-0.014451)">
			<title>Sheet.14</title>
			<path d="M0 283.46 L102.55 283.46" class="st2"/>
		</g>
		<g id="shape15-89" v:mID="15" v:groupContext="shape" transform="translate(385.063,434.057) rotate(180)">
			<title>Sheet.15</title>
			<rect x="0" y="247.679" width="27.6482" height="35.786" class="st1"/>
		</g>
		<g id="shape16-91" v:mID="16" v:groupContext="shape" transform="translate(220.304,-65.6239) rotate(-30)">
			<title>Triangle.16</title>
			<v:userDefs>
				<v:ud v:nameU="visVersion" v:val="VT0(12):26"/>
			</v:userDefs>
			<path d="M23.35 283.46 L10.84 261.79 L-1.68 283.46 L23.35 283.46 Z" class="st1"/>
		</g>
		<g id="shape17-93" v:mID="17" v:groupContext="shape" v:layerMember="1" transform="translate(41.6749,196.299) rotate(-90)">
			<title>Manual operation.17</title>
			<v:custProps>
				<v:cp v:nameU="Cost" v:lbl="Cost" v:type="7" v:format="@" v:langID="1033"/>
				<v:cp v:nameU="Duration" v:lbl="Duration" v:type="2" v:langID="1033"/>
				<v:cp v:nameU="Resources" v:lbl="Resources" v:langID="1033"/>
			</v:custProps>
			<v:userDefs>
				<v:ud v:nameU="AntiScale" v:val="VT0(1):26"/>
				<v:ud v:nameU="visVersion" v:val="VT0(12):26"/>
			</v:userDefs>
			<path d="M13.82 283.46 L41.46 283.46 L55.28 269.29 L0 269.29 L13.82 283.46 Z" class="st1"/>
		</g>
		<g id="shape18-95" v:mID="18" v:groupContext="shape" transform="translate(310.966,436.136) rotate(180)">
			<title>Sheet.18</title>
			<path d="M0 283.46 L13.61 283.46" class="st2"/>
		</g>
		<g id="shape19-98" v:mID="19" v:groupContext="shape" transform="translate(310.966,467.317) rotate(180)">
			<title>Sheet.19</title>
			<path d="M0 283.46 L13.61 283.46" class="st2"/>
		</g>
		<g id="shape20-101" v:mID="20" v:groupContext="shape" transform="translate(382.606,-110.113)">
			<title>Sheet.20</title>
			<desc>Port 3</desc>
			<v:textBlock v:margins="rect(4,4,4,4)" v:tabSpace="42.5197"/>
			<v:textRect cx="15.4488" cy="278.066" width="30.9" height="10.7975"/>
			<rect x="0" y="272.667" width="30.8976" height="10.7975" class="st4"/>
			<text x="4.78" y="280.47" class="st7" v:langID="1030"><v:paragraph v:horizAlign="1"/><v:tabList/>Port 3</text>		</g>
		<g id="shape21-104" v:mID="21" v:groupContext="shape" transform="translate(314.697,450.309) rotate(180)">
			<title>Sheet.21</title>
			<rect x="0" y="279.496" width="3.40157" height="3.9685" class="st6"/>
		</g>
		<g id="shape33-106" v:mID="33" v:groupContext="shape" transform="translate(325.818,455.061) rotate(180)">
			<title>Sheet.33</title>
			<desc>X</desc>
			<v:textBlock v:margins="rect(4,4,4,4)" v:tabSpace="42.5197"/>
			<v:textRect cx="7.26126" cy="281.305" width="14.53" height="4.31901"/>
			<rect x="0" y="279.146" width="14.5225" height="4.31901" class="st4"/>
			<text x="4.59" y="283.71" class="st7" v:langID="1030"><v:paragraph v:horizAlign="1"/><v:tabList/>X</text>		</g>
		<g id="shape42-109" v:mID="42" v:groupContext="shape" transform="translate(124.37,-169.37)">
			<title>Sheet.42</title>
			<desc>VLAN MEP</desc>
			<v:textBlock v:margins="rect(4,4,4,4)" v:tabSpace="42.5197"/>
			<v:textRect cx="19.1339" cy="278.066" width="38.27" height="10.7975"/>
			<rect x="0" y="272.667" width="38.2677" height="10.7975" class="st4"/>
			<text x="8.68" y="275.67" class="st7" v:langID="1030"><v:paragraph v:horizAlign="1"/><v:tabList/>VLAN <tspan x="10.47"
						dy="1.2em" class="st9">MEP</tspan></text>		</g>
		<g id="shape45-113" v:mID="45" v:groupContext="shape" transform="translate(158.669,-172.746)">
			<title>Sheet.45</title>
			<desc>VLAN Half-MIP</desc>
			<v:textBlock v:margins="rect(4,4,4,4)" v:tabSpace="42.5197"/>
			<v:textRect cx="22.6772" cy="278.066" width="45.36" height="10.7975"/>
			<rect x="0" y="272.667" width="45.3543" height="10.7975" class="st4"/>
			<text x="12.23" y="275.67" class="st7" v:langID="1030"><v:paragraph v:horizAlign="1"/><v:tabList/>VLAN <tspan x="7.12"
						dy="1.2em" class="st9">Half</tspan>-MIP</text>		</g>
		<g id="shape46-117" v:mID="46" v:groupContext="shape" transform="translate(200.622,-172.746)">
			<title>Sheet.46</title>
			<desc>VLAN Half-MIP</desc>
			<v:textBlock v:margins="rect(4,4,4,4)" v:tabSpace="42.5197"/>
			<v:textRect cx="20.126" cy="278.066" width="40.26" height="10.7975"/>
			<rect x="0" y="272.667" width="40.252" height="10.7975" class="st4"/>
			<text x="9.68" y="275.67" class="st7" v:langID="1030"><v:paragraph v:horizAlign="1"/><v:tabList/>VLAN <tspan x="4.57"
						dy="1.2em" class="st9">Half</tspan>-MIP</text>		</g>
		<g id="shape47-121" v:mID="47" v:groupContext="shape" transform="translate(54.9213,-172.746)">
			<title>Sheet.47</title>
			<desc>Port MEP</desc>
			<v:textBlock v:margins="rect(4,4,4,4)" v:tabSpace="42.5197"/>
			<v:textRect cx="15.5906" cy="278.066" width="31.19" height="10.7975"/>
			<rect x="0" y="272.667" width="31.1811" height="10.7975" class="st4"/>
			<text x="8.25" y="275.67" class="st7" v:langID="1030"><v:paragraph v:horizAlign="1"/><v:tabList/>Port <tspan x="6.92"
						dy="1.2em" class="st9">MEP</tspan></text>		</g>
		<g id="shape48-125" v:mID="48" v:groupContext="shape" transform="translate(348.024,-227.454)">
			<title>Sheet.48</title>
			<desc>Port MEP</desc>
			<v:textBlock v:margins="rect(4,4,4,4)" v:tabSpace="42.5197"/>
			<v:textRect cx="15.5906" cy="278.066" width="31.19" height="10.7975"/>
			<rect x="0" y="272.667" width="31.1811" height="10.7975" class="st4"/>
			<text x="8.25" y="275.67" class="st7" v:langID="1030"><v:paragraph v:horizAlign="1"/><v:tabList/>Port <tspan x="6.92"
						dy="1.2em" class="st9">MEP</tspan></text>		</g>
		<g id="shape49-129" v:mID="49" v:groupContext="shape" transform="translate(348.307,-137.313)">
			<title>Sheet.49</title>
			<desc>Port MEP</desc>
			<v:textBlock v:margins="rect(4,4,4,4)" v:tabSpace="42.5197"/>
			<v:textRect cx="15.5906" cy="278.066" width="31.19" height="10.7975"/>
			<rect x="0" y="272.667" width="31.1811" height="10.7975" class="st4"/>
			<text x="8.25" y="275.67" class="st7" v:langID="1030"><v:paragraph v:horizAlign="1"/><v:tabList/>Port <tspan x="6.92"
						dy="1.2em" class="st9">MEP</tspan></text>		</g>
	</g>
</svg>
