<?xml version="1.0" encoding="UTF-8"?><svg xmlns="http://www.w3.org/2000/svg" xmlns:xlink="http://www.w3.org/1999/xlink" fill-opacity="1" color-rendering="auto" color-interpolation="auto" text-rendering="auto" stroke="black" stroke-linecap="square" width="450" stroke-miterlimit="10" shape-rendering="auto" stroke-opacity="1" fill="black" stroke-dasharray="none" font-weight="normal" stroke-width="1" height="221" font-family="'Dialog'" font-style="normal" stroke-linejoin="miter" font-size="12px" stroke-dashoffset="0" image-rendering="auto">
  <!--Generated by ySVG 2.5-->
  <defs id="genericDefs"/>
  <g>
    <defs id="defs1">
      <linearGradient x1="616" gradientUnits="userSpaceOnUse" x2="696" y1="276" y2="316" id="linearGradient1" spreadMethod="reflect">
        <stop stop-opacity="1" stop-color="rgb(232,238,247)" offset="0%"/>
        <stop stop-opacity="1" stop-color="rgb(183,201,227)" offset="100%"/>
      </linearGradient>
      <linearGradient x1="616" gradientUnits="userSpaceOnUse" x2="696" y1="364" y2="404" id="linearGradient2" spreadMethod="reflect">
        <stop stop-opacity="1" stop-color="rgb(232,238,247)" offset="0%"/>
        <stop stop-opacity="1" stop-color="rgb(183,201,227)" offset="100%"/>
      </linearGradient>
      <clipPath clipPathUnits="userSpaceOnUse" id="clipPath1">
        <path d="M0 0 L450 0 L450 221 L0 221 L0 0 Z"/>
      </clipPath>
      <clipPath clipPathUnits="userSpaceOnUse" id="clipPath2">
        <path d="M410 261 L860 261 L860 482 L410 482 L410 261 Z"/>
      </clipPath>
    </defs>
    <g fill="url(#linearGradient1)" text-rendering="geometricPrecision" shape-rendering="geometricPrecision" transform="matrix(1,0,0,1,-410,-261)" stroke="url(#linearGradient1)">
      <path d="M616 276 L696 276 L696 316 L616 316 Z" stroke="none" clip-path="url(#clipPath2)"/>
    </g>
    <g text-rendering="geometricPrecision" stroke-miterlimit="1.45" shape-rendering="geometricPrecision" transform="matrix(1,0,0,1,-410,-261)" stroke-linecap="butt">
      <path fill="none" d="M616 276 L696 276 L696 316 L616 316 Z" clip-path="url(#clipPath2)"/>
      <text x="618.9893" xml:space="preserve" y="300.1543" clip-path="url(#clipPath2)" font-family="sans-serif" stroke="none">Uninitialized</text>
    </g>
    <g fill="url(#linearGradient2)" text-rendering="geometricPrecision" shape-rendering="geometricPrecision" transform="matrix(1,0,0,1,-410,-261)" stroke="url(#linearGradient2)">
      <path d="M616 364 L696 364 L696 404 L616 404 Z" stroke="none" clip-path="url(#clipPath2)"/>
    </g>
    <g text-rendering="geometricPrecision" stroke-miterlimit="1.45" shape-rendering="geometricPrecision" transform="matrix(1,0,0,1,-410,-261)" stroke-linecap="butt">
      <path fill="none" d="M616 364 L696 364 L696 404 L616 404 Z" clip-path="url(#clipPath2)"/>
      <text x="627.0811" xml:space="preserve" y="388.1543" clip-path="url(#clipPath2)" font-family="sans-serif" stroke="none">Initialized</text>
    </g>
    <g text-rendering="geometricPrecision" stroke-miterlimit="1.45" shape-rendering="geometricPrecision" transform="matrix(1,0,0,1,-410,-261)" stroke-linecap="butt">
      <path fill="none" d="M644.3545 316.0303 L636.0262 330.3549 L634.1307 334.6835 L633.4706 339.0241 L634.0459 343.3768 L635.8564 347.7416 L640.9943 356.9897" clip-path="url(#clipPath2)"/>
    </g>
    <g text-rendering="geometricPrecision" stroke-miterlimit="1.45" shape-rendering="geometricPrecision" transform="matrix(1,0,0,1,-410,-261)" stroke-linecap="butt">
      <path d="M644.8794 363.9829 L643.4225 351.0648 L640.5086 356.1155 L634.6809 355.9212 Z" stroke="none" clip-path="url(#clipPath2)"/>
      <text x="427.4752" xml:space="preserve" y="340.6758" clip-path="url(#clipPath2)" font-family="sans-serif" stroke="none">mesa-cmd example init &lt;name&gt;</text>
      <path fill="none" d="M649.8221 404.0188 L649.8036 404.4312 L649.9832 407.9373 L650.4957 411.4041 L651.3361 414.8064 L652.4996 418.1186 L653.9809 421.3152 L655.7752 424.3709 L657.8774 427.2601 L660.2824 429.9573 L662.9854 432.437 L665.9811 434.6739 L669.187 436.5977 L672.5065 438.1583 L675.9143 439.3609 L679.3849 440.2104 L682.8927 440.7119 L686.4124 440.8703 L689.9183 440.6908 L693.3853 440.1783 L696.7875 439.3378 L700.0997 438.1744 L703.2964 436.693 L706.352 434.8987 L709.2411 432.7966 L711.9384 430.3915 L714.4182 427.6886 L716.655 424.6928 L718.5787 421.487 L720.1394 418.1674 L721.342 414.7596 L722.1915 411.2891 L722.693 407.7812 L722.8514 404.2616 L722.6719 400.7556 L722.1594 397.2887 L721.3189 393.8864 L720.1555 390.5742 L718.6741 387.3776 L716.8798 384.3219 L714.7776 381.4328 L712.3726 378.7356 L709.6697 376.2558 L706.674 374.0189 L703.4681 372.0952 L703.451 372.0872 L703.3562 372.0555" clip-path="url(#clipPath2)"/>
      <path d="M695.9158 369.1161 L705.2392 378.1755 L704.2862 372.423 L708.9135 368.875 Z" clip-path="url(#clipPath2)" stroke="none"/>
      <text x="598.8874" xml:space="preserve" y="461.3336" clip-path="url(#clipPath2)" font-family="sans-serif" stroke="none">mesa-cmd example run [...]</text>
      <path fill="none" d="M667.6562 364.0078 L675.5734 350.4286 L677.4811 346.0986 L678.1675 341.7474 L677.6324 337.375 L675.876 332.9814 L670.5423 323.0574" clip-path="url(#clipPath2)"/>
      <path d="M666.7549 316.0107 L668.0318 328.9478 L671.0157 323.9382 L676.8401 324.2137 Z" clip-path="url(#clipPath2)" stroke="none"/>
      <text x="685.9216" xml:space="preserve" y="340.4951" clip-path="url(#clipPath2)" font-family="sans-serif" stroke="none">mesa-cmd example uninit</text>
    </g>
  </g>
</svg>
